<?xml version="1.0" encoding="utf-8"?>
<!-- Generator: Adobe Illustrator 16.0.4, SVG Export Plug-In . SVG Version: 6.00 Build 0)  -->
<!DOCTYPE svg PUBLIC "-//W3C//DTD SVG 1.1//EN" "http://www.w3.org/Graphics/SVG/1.1/DTD/svg11.dtd" [
	<!ENTITY ns_flows "http://ns.adobe.com/Flows/1.0/">
	<!ENTITY ns_extend "http://ns.adobe.com/Extensibility/1.0/">
	<!ENTITY ns_ai "http://ns.adobe.com/AdobeIllustrator/10.0/">
	<!ENTITY ns_graphs "http://ns.adobe.com/Graphs/1.0/">
]>
<svg version="1.1" id="Layer_1" xmlns:x="&ns_extend;" xmlns:i="&ns_ai;" xmlns:graph="&ns_graphs;"
	 xmlns="http://www.w3.org/2000/svg" xmlns:xlink="http://www.w3.org/1999/xlink" xmlns:a="http://ns.adobe.com/AdobeSVGViewerExtensions/3.0/"
	 x="0px" y="0px" width="340px" height="156px" viewBox="0 0 340 156" enable-background="new 0 0 340 156" xml:space="preserve">
<g>
	<path fill="#E06127" d="M87.489,86.661c0,0.304-0.009,0.565-0.028,0.777c-0.018,0.212-0.045,0.396-0.082,0.547
		s-0.085,0.282-0.146,0.395c-0.061,0.108-0.158,0.232-0.292,0.373c-0.134,0.14-0.393,0.321-0.776,0.541
		c-0.384,0.216-0.854,0.43-1.408,0.629c-0.554,0.202-1.187,0.368-1.9,0.501c-0.713,0.135-1.483,0.201-2.311,0.201
		c-1.621,0-3.082-0.249-4.387-0.747c-1.303-0.501-2.412-1.246-3.325-2.238c-0.914-0.994-1.614-2.233-2.102-3.719
		c-0.487-1.485-0.73-3.216-0.73-5.19c0-2.008,0.268-3.794,0.804-5.354c0.537-1.56,1.286-2.87,2.248-3.929
		c0.962-1.06,2.117-1.863,3.463-2.413c1.346-0.548,2.83-0.823,4.449-0.823c0.658,0,1.291,0.056,1.901,0.166
		c0.61,0.109,1.171,0.253,1.69,0.43c0.519,0.175,0.983,0.38,1.397,0.611c0.415,0.232,0.705,0.429,0.868,0.594
		c0.165,0.164,0.277,0.301,0.338,0.411c0.061,0.11,0.111,0.251,0.146,0.421c0.037,0.169,0.064,0.372,0.083,0.603
		c0.018,0.232,0.026,0.518,0.026,0.859c0,0.364-0.012,0.677-0.037,0.932s-0.067,0.462-0.127,0.62
		c-0.061,0.159-0.135,0.275-0.219,0.348c-0.085,0.073-0.183,0.109-0.292,0.109c-0.183,0-0.415-0.107-0.695-0.319
		c-0.28-0.213-0.643-0.45-1.087-0.714c-0.445-0.261-0.975-0.498-1.59-0.713c-0.615-0.211-1.349-0.318-2.202-0.318
		c-0.939,0-1.775,0.192-2.513,0.576c-0.738,0.383-1.364,0.931-1.883,1.644c-0.517,0.713-0.91,1.576-1.178,2.586
		c-0.269,1.011-0.402,2.151-0.402,3.417c0,1.39,0.143,2.594,0.429,3.607c0.287,1.018,0.696,1.856,1.224,2.515
		c0.53,0.658,1.17,1.149,1.918,1.472c0.75,0.323,1.593,0.484,2.532,0.484c0.853,0,1.591-0.101,2.211-0.301
		c0.622-0.202,1.154-0.423,1.6-0.668c0.444-0.245,0.81-0.463,1.097-0.658c0.286-0.194,0.508-0.292,0.667-0.292
		c0.121,0,0.219,0.024,0.292,0.074c0.074,0.047,0.134,0.145,0.183,0.292c0.049,0.145,0.085,0.349,0.109,0.613
		C87.477,85.87,87.489,86.222,87.489,86.661z"/>
	<path fill="#E06127" d="M107.151,81.308c0,1.389-0.183,2.654-0.549,3.798c-0.365,1.147-0.919,2.134-1.662,2.961
		c-0.744,0.831-1.675,1.47-2.796,1.92c-1.121,0.449-2.43,0.678-3.928,0.678c-1.449,0-2.711-0.202-3.784-0.604
		c-1.071-0.402-1.96-0.985-2.667-1.753c-0.706-0.768-1.23-1.712-1.572-2.833c-0.341-1.12-0.511-2.4-0.511-3.839
		c0-1.388,0.185-2.659,0.558-3.809c0.371-1.152,0.929-2.139,1.672-2.96c0.742-0.822,1.671-1.458,2.786-1.909
		c1.115-0.45,2.421-0.677,3.919-0.677c1.462,0,2.729,0.2,3.802,0.595c1.07,0.395,1.957,0.977,2.658,1.744s1.221,1.712,1.563,2.835
		C106.981,78.572,107.151,79.857,107.151,81.308z M102.419,81.491c0-0.807-0.064-1.546-0.192-2.224
		c-0.128-0.673-0.345-1.262-0.648-1.763c-0.305-0.498-0.71-0.888-1.216-1.168c-0.505-0.28-1.142-0.42-1.909-0.42
		c-0.683,0-1.279,0.123-1.792,0.375c-0.512,0.25-0.932,0.615-1.261,1.094c-0.329,0.482-0.576,1.061-0.74,1.737
		c-0.165,0.677-0.248,1.449-0.248,2.313c0,0.804,0.067,1.541,0.202,2.219c0.133,0.677,0.35,1.264,0.648,1.765
		c0.297,0.498,0.704,0.884,1.216,1.158c0.511,0.272,1.145,0.413,1.9,0.413c0.695,0,1.297-0.126,1.809-0.374
		c0.512-0.253,0.931-0.614,1.261-1.089c0.328-0.475,0.572-1.052,0.73-1.727C102.34,83.124,102.419,82.355,102.419,81.491z"/>
	<path fill="#E06127" d="M126.357,89.622c0,0.121-0.037,0.229-0.111,0.317c-0.073,0.094-0.194,0.169-0.365,0.23
		s-0.405,0.104-0.703,0.135c-0.298,0.034-0.667,0.048-1.105,0.048c-0.451,0-0.825-0.014-1.125-0.048
		c-0.299-0.03-0.533-0.073-0.703-0.135s-0.293-0.137-0.366-0.23c-0.073-0.089-0.109-0.196-0.109-0.317v-9.3
		c0-0.793-0.058-1.415-0.174-1.865c-0.116-0.451-0.283-0.838-0.504-1.161c-0.217-0.322-0.501-0.572-0.849-0.75
		c-0.347-0.176-0.751-0.264-1.215-0.264c-0.583,0-1.175,0.211-1.771,0.638c-0.598,0.428-1.219,1.049-1.864,1.866v10.835
		c0,0.121-0.037,0.229-0.109,0.317c-0.073,0.094-0.199,0.169-0.375,0.23c-0.176,0.062-0.411,0.104-0.703,0.135
		c-0.292,0.034-0.663,0.048-1.115,0.048c-0.451,0-0.822-0.014-1.114-0.048c-0.292-0.03-0.528-0.073-0.704-0.135
		c-0.177-0.062-0.301-0.137-0.375-0.23c-0.073-0.089-0.109-0.196-0.109-0.317V73.323c0-0.124,0.03-0.23,0.09-0.322
		c0.062-0.092,0.172-0.167,0.33-0.229c0.158-0.06,0.362-0.105,0.612-0.137c0.25-0.03,0.563-0.044,0.942-0.044
		c0.389,0,0.711,0.015,0.968,0.044c0.256,0.032,0.454,0.077,0.594,0.137c0.14,0.062,0.24,0.137,0.301,0.229
		c0.06,0.092,0.091,0.198,0.091,0.322v1.882c0.903-0.976,1.818-1.707,2.75-2.194c0.933-0.487,1.903-0.731,2.915-0.731
		c1.109,0,2.043,0.184,2.805,0.549c0.761,0.365,1.377,0.861,1.846,1.487c0.468,0.63,0.806,1.361,1.013,2.204
		c0.207,0.841,0.312,1.852,0.312,3.032V89.622z"/>
	<path fill="#E06127" d="M142.346,85.017c0,0.927-0.174,1.741-0.522,2.449c-0.346,0.707-0.836,1.297-1.471,1.771
		c-0.632,0.475-1.382,0.833-2.247,1.067c-0.865,0.238-1.803,0.359-2.815,0.359c-0.608,0-1.19-0.045-1.744-0.138
		c-0.555-0.091-1.052-0.207-1.489-0.347c-0.439-0.141-0.805-0.285-1.097-0.431c-0.292-0.146-0.506-0.282-0.64-0.413
		c-0.135-0.124-0.237-0.326-0.31-0.6c-0.074-0.276-0.11-0.679-0.11-1.216c0-0.354,0.012-0.637,0.036-0.85
		c0.024-0.213,0.061-0.386,0.11-0.514s0.11-0.211,0.184-0.255c0.073-0.041,0.165-0.062,0.274-0.062c0.134,0,0.332,0.073,0.594,0.228
		c0.262,0.152,0.587,0.321,0.977,0.501c0.391,0.186,0.843,0.354,1.361,0.513c0.519,0.158,1.107,0.238,1.764,0.238
		c0.414,0,0.782-0.043,1.106-0.128c0.322-0.084,0.602-0.207,0.839-0.366c0.238-0.157,0.417-0.358,0.541-0.604
		c0.121-0.244,0.182-0.521,0.182-0.84c0-0.365-0.113-0.68-0.338-0.941c-0.225-0.264-0.524-0.49-0.895-0.686
		c-0.373-0.194-0.793-0.378-1.262-0.548c-0.469-0.169-0.95-0.361-1.443-0.567c-0.494-0.204-0.975-0.443-1.443-0.711
		c-0.469-0.271-0.89-0.598-1.262-0.987c-0.372-0.39-0.67-0.86-0.895-1.407c-0.226-0.548-0.339-1.206-0.339-1.973
		c0-0.781,0.152-1.495,0.458-2.148c0.304-0.65,0.742-1.208,1.315-1.673c0.573-0.46,1.27-0.82,2.092-1.078
		c0.822-0.255,1.745-0.383,2.768-0.383c0.513,0,1.008,0.037,1.49,0.11c0.482,0.074,0.917,0.164,1.307,0.273
		c0.39,0.11,0.719,0.23,0.987,0.359c0.267,0.125,0.46,0.235,0.576,0.329c0.114,0.09,0.198,0.181,0.247,0.273
		c0.048,0.09,0.083,0.201,0.109,0.329c0.025,0.128,0.045,0.284,0.064,0.474c0.017,0.19,0.028,0.425,0.028,0.705
		c0,0.328-0.011,0.596-0.028,0.805c-0.02,0.207-0.05,0.37-0.092,0.492c-0.042,0.123-0.101,0.203-0.174,0.246
		c-0.072,0.043-0.158,0.062-0.256,0.062c-0.109,0-0.279-0.062-0.51-0.189c-0.231-0.126-0.521-0.264-0.869-0.411
		c-0.347-0.147-0.749-0.282-1.206-0.411c-0.458-0.128-0.978-0.193-1.563-0.193c-0.414,0-0.774,0.046-1.078,0.129
		c-0.305,0.085-0.555,0.206-0.75,0.363c-0.196,0.162-0.341,0.347-0.439,0.561c-0.097,0.21-0.146,0.441-0.146,0.683
		c0,0.379,0.115,0.695,0.348,0.952c0.231,0.254,0.537,0.481,0.914,0.676c0.377,0.194,0.807,0.377,1.289,0.547
		c0.482,0.17,0.968,0.357,1.462,0.557c0.493,0.201,0.98,0.437,1.461,0.706c0.481,0.268,0.912,0.596,1.289,0.984
		c0.377,0.392,0.682,0.857,0.913,1.398C142.23,83.632,142.346,84.272,142.346,85.017z"/>
	<path fill="#E06127" d="M160.857,80.996c0,0.562-0.125,0.976-0.375,1.244c-0.25,0.27-0.594,0.399-1.032,0.399h-9.922
		c0,0.695,0.082,1.324,0.247,1.893c0.163,0.566,0.426,1.049,0.785,1.442c0.359,0.397,0.822,0.698,1.389,0.904
		c0.566,0.209,1.245,0.312,2.037,0.312c0.804,0,1.51-0.059,2.119-0.174c0.61-0.117,1.137-0.245,1.581-0.385
		c0.444-0.138,0.813-0.269,1.105-0.382c0.292-0.117,0.531-0.176,0.714-0.176c0.109,0,0.2,0.023,0.273,0.067
		c0.073,0.042,0.133,0.117,0.183,0.227c0.048,0.108,0.082,0.264,0.102,0.466c0.018,0.201,0.028,0.453,0.028,0.757
		c0,0.269-0.006,0.498-0.02,0.687c-0.012,0.19-0.03,0.352-0.054,0.484c-0.025,0.135-0.061,0.247-0.11,0.336
		c-0.048,0.093-0.112,0.182-0.191,0.268c-0.08,0.085-0.296,0.2-0.65,0.346c-0.354,0.145-0.804,0.29-1.352,0.43
		c-0.548,0.141-1.175,0.264-1.883,0.365c-0.707,0.105-1.461,0.157-2.265,0.157c-1.45,0-2.72-0.183-3.811-0.552
		c-1.089-0.363-2.001-0.918-2.731-1.662c-0.731-0.741-1.276-1.681-1.635-2.812c-0.36-1.134-0.54-2.462-0.54-3.983
		c0-1.451,0.189-2.757,0.567-3.919c0.375-1.163,0.925-2.151,1.645-2.96c0.718-0.811,1.591-1.429,2.621-1.854
		c1.029-0.428,2.19-0.641,3.482-0.641c1.365,0,2.531,0.201,3.499,0.603c0.969,0.403,1.763,0.96,2.384,1.672
		c0.622,0.712,1.08,1.557,1.371,2.53c0.293,0.976,0.439,2.036,0.439,3.18V80.996z M156.398,79.681
		c0.037-1.292-0.222-2.304-0.777-3.042c-0.554-0.736-1.41-1.107-2.566-1.107c-0.585,0-1.095,0.109-1.527,0.331
		c-0.432,0.219-0.792,0.516-1.078,0.886c-0.286,0.37-0.506,0.81-0.657,1.315c-0.153,0.507-0.241,1.043-0.265,1.618H156.398z"/>
	<path fill="#E06127" d="M175.11,74.837c0,0.439-0.012,0.797-0.038,1.08c-0.022,0.28-0.06,0.5-0.108,0.657
		c-0.049,0.158-0.112,0.269-0.193,0.327c-0.078,0.062-0.179,0.093-0.301,0.093c-0.096,0-0.207-0.021-0.328-0.064
		c-0.121-0.042-0.259-0.087-0.411-0.138c-0.152-0.046-0.32-0.092-0.503-0.138c-0.182-0.04-0.383-0.061-0.604-0.061
		c-0.255,0-0.51,0.053-0.767,0.155c-0.258,0.102-0.52,0.263-0.796,0.484c-0.273,0.22-0.56,0.51-0.857,0.876
		c-0.301,0.366-0.619,0.817-0.96,1.353v10.161c0,0.121-0.035,0.229-0.109,0.317c-0.074,0.094-0.199,0.169-0.375,0.23
		c-0.178,0.062-0.412,0.104-0.705,0.135c-0.291,0.034-0.663,0.048-1.114,0.048c-0.45,0-0.822-0.014-1.114-0.048
		c-0.292-0.03-0.527-0.073-0.703-0.135c-0.178-0.062-0.302-0.137-0.375-0.23c-0.074-0.089-0.11-0.196-0.11-0.317V73.323
		c0-0.124,0.03-0.23,0.091-0.322s0.17-0.167,0.328-0.229c0.158-0.06,0.363-0.105,0.613-0.137c0.25-0.03,0.563-0.044,0.941-0.044
		c0.39,0,0.712,0.015,0.969,0.044c0.255,0.032,0.452,0.077,0.593,0.137c0.14,0.062,0.241,0.137,0.3,0.229
		c0.063,0.092,0.093,0.198,0.093,0.322v2.026c0.426-0.607,0.827-1.113,1.207-1.507c0.376-0.396,0.735-0.708,1.078-0.941
		c0.34-0.232,0.683-0.392,1.024-0.484c0.34-0.092,0.68-0.138,1.023-0.138c0.158,0,0.327,0.009,0.51,0.027
		c0.184,0.019,0.373,0.05,0.566,0.092c0.196,0.042,0.367,0.092,0.511,0.146c0.147,0.054,0.255,0.113,0.321,0.173
		s0.116,0.128,0.146,0.202c0.031,0.072,0.059,0.172,0.082,0.3c0.023,0.13,0.043,0.321,0.056,0.574
		C175.105,74.053,175.11,74.397,175.11,74.837z"/>
	<path fill="#E06127" d="M193.273,73.303c0,0.061-0.001,0.135-0.008,0.22c-0.008,0.084-0.02,0.18-0.039,0.283
		c-0.016,0.104-0.042,0.223-0.07,0.357c-0.031,0.133-0.072,0.285-0.119,0.455l-4.897,14.749c-0.062,0.208-0.145,0.375-0.247,0.502
		c-0.104,0.127-0.272,0.229-0.511,0.302c-0.239,0.073-0.562,0.121-0.969,0.146c-0.409,0.025-0.942,0.037-1.601,0.037
		c-0.646,0-1.171-0.014-1.579-0.048c-0.41-0.03-0.729-0.083-0.96-0.153c-0.23-0.073-0.399-0.174-0.503-0.301
		c-0.103-0.127-0.187-0.29-0.246-0.484l-4.897-14.749c-0.074-0.242-0.13-0.462-0.174-0.656c-0.044-0.194-0.066-0.335-0.073-0.42
		c-0.005-0.085-0.01-0.164-0.01-0.238c0-0.122,0.035-0.228,0.103-0.318c0.065-0.092,0.186-0.168,0.355-0.229
		c0.169-0.062,0.404-0.103,0.703-0.127c0.299-0.026,0.674-0.037,1.124-0.037c0.5,0,0.901,0.015,1.206,0.044
		c0.303,0.032,0.543,0.073,0.722,0.129c0.177,0.055,0.301,0.133,0.373,0.237c0.075,0.104,0.137,0.229,0.184,0.376l3.713,11.969
		l0.107,0.455l0.11-0.455l3.655-11.969c0.034-0.147,0.092-0.272,0.173-0.376c0.077-0.104,0.202-0.182,0.372-0.237
		c0.173-0.056,0.399-0.097,0.686-0.129c0.287-0.03,0.663-0.044,1.125-0.044c0.45,0,0.818,0.011,1.106,0.037
		c0.286,0.024,0.508,0.066,0.666,0.127c0.158,0.061,0.268,0.137,0.328,0.229C193.244,73.075,193.273,73.181,193.273,73.303z"/>
	<path fill="#E06127" d="M210.688,80.996c0,0.562-0.125,0.976-0.373,1.244c-0.251,0.27-0.594,0.399-1.033,0.399h-9.922
		c0,0.695,0.081,1.324,0.248,1.893c0.163,0.566,0.424,1.049,0.785,1.442c0.358,0.397,0.82,0.698,1.387,0.904
		c0.567,0.209,1.247,0.312,2.037,0.312c0.806,0,1.512-0.059,2.119-0.174c0.611-0.117,1.137-0.245,1.583-0.385
		c0.445-0.138,0.812-0.269,1.106-0.382c0.291-0.117,0.529-0.176,0.711-0.176c0.108,0,0.201,0.023,0.274,0.067
		c0.073,0.042,0.135,0.117,0.184,0.227c0.048,0.108,0.082,0.264,0.099,0.466c0.02,0.201,0.03,0.453,0.03,0.757
		c0,0.269-0.008,0.498-0.02,0.687c-0.013,0.19-0.031,0.352-0.056,0.484c-0.024,0.135-0.062,0.247-0.11,0.336
		c-0.049,0.093-0.111,0.182-0.19,0.268c-0.08,0.085-0.296,0.2-0.648,0.346c-0.354,0.145-0.804,0.29-1.353,0.43
		c-0.548,0.141-1.175,0.264-1.883,0.365c-0.706,0.105-1.462,0.157-2.265,0.157c-1.451,0-2.721-0.183-3.812-0.552
		c-1.089-0.363-2.001-0.918-2.73-1.662c-0.732-0.741-1.276-1.681-1.638-2.812c-0.358-1.134-0.536-2.462-0.536-3.983
		c0-1.451,0.188-2.757,0.565-3.919c0.377-1.163,0.926-2.151,1.645-2.96c0.717-0.811,1.591-1.429,2.621-1.854
		c1.029-0.428,2.189-0.641,3.482-0.641c1.364,0,2.529,0.201,3.5,0.603c0.967,0.403,1.762,0.96,2.384,1.672
		c0.621,0.712,1.077,1.557,1.369,2.53c0.293,0.976,0.438,2.036,0.438,3.18V80.996z M206.229,79.681
		c0.039-1.292-0.222-2.304-0.774-3.042c-0.556-0.736-1.411-1.107-2.57-1.107c-0.583,0-1.093,0.109-1.523,0.331
		c-0.433,0.219-0.792,0.516-1.08,0.886c-0.284,0.37-0.503,0.81-0.657,1.315c-0.151,0.507-0.24,1.043-0.264,1.618H206.229z"/>
	<path fill="#E06127" d="M237.221,88.361c0,0.354-0.015,0.648-0.046,0.886c-0.03,0.238-0.076,0.43-0.138,0.576
		c-0.06,0.146-0.135,0.251-0.225,0.318c-0.094,0.066-0.193,0.102-0.303,0.102h-11.879c-0.401,0-0.739-0.118-1.015-0.357
		c-0.272-0.237-0.411-0.626-0.411-1.158V68.113c0-0.538,0.139-0.923,0.411-1.159c0.275-0.238,0.613-0.357,1.015-0.357h11.806
		c0.11,0,0.207,0.03,0.292,0.091c0.086,0.061,0.157,0.168,0.219,0.32c0.062,0.152,0.107,0.347,0.137,0.583
		c0.031,0.237,0.046,0.539,0.046,0.904c0,0.342-0.015,0.631-0.046,0.869c-0.029,0.238-0.075,0.429-0.137,0.576
		c-0.062,0.146-0.133,0.254-0.219,0.319c-0.085,0.068-0.182,0.102-0.292,0.102h-8.442v5.773h7.145c0.108,0,0.211,0.033,0.301,0.103
		c0.092,0.066,0.168,0.168,0.229,0.309c0.06,0.14,0.105,0.33,0.137,0.567c0.03,0.237,0.045,0.527,0.045,0.868
		c0,0.352-0.015,0.645-0.045,0.875c-0.031,0.233-0.077,0.418-0.137,0.558c-0.062,0.141-0.138,0.242-0.229,0.302
		c-0.09,0.062-0.192,0.093-0.301,0.093h-7.145v6.668h8.516c0.109,0,0.209,0.034,0.303,0.101c0.09,0.067,0.165,0.176,0.225,0.32
		c0.062,0.146,0.107,0.338,0.138,0.574C237.206,87.711,237.221,88.007,237.221,88.361z"/>
	<path fill="#E06127" d="M256.756,89.622c0,0.121-0.036,0.229-0.11,0.317c-0.073,0.094-0.194,0.169-0.365,0.23
		s-0.403,0.104-0.702,0.135c-0.3,0.034-0.668,0.048-1.106,0.048c-0.449,0-0.825-0.014-1.123-0.048
		c-0.3-0.03-0.535-0.073-0.704-0.135c-0.17-0.062-0.291-0.137-0.366-0.23c-0.072-0.089-0.107-0.196-0.107-0.317v-9.3
		c0-0.793-0.06-1.415-0.176-1.865c-0.115-0.451-0.283-0.838-0.502-1.161c-0.22-0.322-0.504-0.572-0.849-0.75
		c-0.349-0.176-0.755-0.264-1.217-0.264c-0.585,0-1.177,0.211-1.771,0.638c-0.598,0.428-1.22,1.049-1.865,1.866v10.835
		c0,0.121-0.035,0.229-0.109,0.317c-0.073,0.094-0.198,0.169-0.375,0.23c-0.175,0.062-0.409,0.104-0.703,0.135
		c-0.292,0.034-0.663,0.048-1.115,0.048c-0.451,0-0.821-0.014-1.114-0.048c-0.292-0.03-0.528-0.073-0.703-0.135
		c-0.177-0.062-0.301-0.137-0.374-0.23c-0.072-0.089-0.11-0.196-0.11-0.317V73.323c0-0.124,0.03-0.23,0.093-0.322
		c0.06-0.092,0.168-0.167,0.328-0.229c0.158-0.06,0.36-0.105,0.612-0.137c0.248-0.03,0.562-0.044,0.941-0.044
		c0.389,0,0.712,0.015,0.967,0.044c0.258,0.032,0.454,0.077,0.595,0.137c0.14,0.062,0.241,0.137,0.302,0.229
		c0.062,0.092,0.089,0.198,0.089,0.322v1.882c0.904-0.976,1.821-1.707,2.753-2.194c0.931-0.487,1.903-0.731,2.915-0.731
		c1.106,0,2.042,0.184,2.805,0.549c0.759,0.365,1.376,0.861,1.846,1.487c0.47,0.63,0.806,1.361,1.014,2.204
		c0.207,0.841,0.311,1.852,0.311,3.032V89.622z"/>
	<path fill="#E06127" d="M276.328,80.996c0,0.562-0.126,0.976-0.376,1.244c-0.25,0.27-0.594,0.399-1.031,0.399h-9.924
		c0,0.695,0.082,1.324,0.248,1.893c0.164,0.566,0.424,1.049,0.784,1.442c0.36,0.397,0.821,0.698,1.39,0.904
		c0.565,0.209,1.245,0.312,2.036,0.312c0.805,0,1.513-0.059,2.121-0.174c0.608-0.117,1.135-0.245,1.581-0.385
		c0.443-0.138,0.812-0.269,1.105-0.382c0.292-0.117,0.529-0.176,0.712-0.176c0.109,0,0.201,0.023,0.273,0.067
		c0.075,0.042,0.133,0.117,0.184,0.227c0.048,0.108,0.08,0.264,0.1,0.466c0.02,0.201,0.03,0.453,0.03,0.757
		c0,0.269-0.01,0.498-0.021,0.687c-0.013,0.19-0.029,0.352-0.054,0.484c-0.024,0.135-0.062,0.247-0.109,0.336
		c-0.05,0.093-0.111,0.182-0.192,0.268c-0.079,0.085-0.295,0.2-0.649,0.346c-0.354,0.145-0.804,0.29-1.35,0.43
		c-0.551,0.141-1.178,0.264-1.885,0.365c-0.705,0.105-1.46,0.157-2.265,0.157c-1.451,0-2.72-0.183-3.812-0.552
		c-1.09-0.363-2-0.918-2.731-1.662c-0.729-0.741-1.273-1.681-1.636-2.812c-0.359-1.134-0.54-2.462-0.54-3.983
		c0-1.451,0.19-2.757,0.567-3.919c0.378-1.163,0.926-2.151,1.646-2.96c0.717-0.811,1.593-1.429,2.623-1.854
		c1.028-0.428,2.189-0.641,3.48-0.641c1.364,0,2.531,0.201,3.5,0.603c0.969,0.403,1.763,0.96,2.384,1.672s1.079,1.557,1.37,2.53
		c0.292,0.976,0.44,2.036,0.44,3.18V80.996z M271.867,79.681c0.037-1.292-0.222-2.304-0.773-3.042
		c-0.558-0.736-1.412-1.107-2.569-1.107c-0.584,0-1.094,0.109-1.527,0.331c-0.432,0.219-0.79,0.516-1.077,0.886
		c-0.287,0.37-0.507,0.81-0.656,1.315c-0.154,0.507-0.242,1.043-0.267,1.618H271.867z"/>
	<path fill="#E06127" d="M290.581,74.837c0,0.439-0.013,0.797-0.038,1.08c-0.024,0.28-0.061,0.5-0.109,0.657
		c-0.047,0.158-0.112,0.269-0.191,0.327c-0.079,0.062-0.18,0.093-0.302,0.093c-0.098,0-0.206-0.021-0.329-0.064
		c-0.12-0.042-0.26-0.087-0.411-0.138c-0.152-0.046-0.319-0.092-0.501-0.138c-0.184-0.04-0.386-0.061-0.604-0.061
		c-0.256,0-0.512,0.053-0.769,0.155c-0.256,0.102-0.519,0.263-0.795,0.484c-0.274,0.22-0.56,0.51-0.858,0.876
		c-0.3,0.366-0.617,0.817-0.959,1.353v10.161c0,0.121-0.037,0.229-0.111,0.317c-0.072,0.094-0.198,0.169-0.373,0.23
		c-0.178,0.062-0.41,0.104-0.702,0.135c-0.295,0.034-0.666,0.048-1.116,0.048c-0.452,0-0.822-0.014-1.114-0.048
		c-0.294-0.03-0.528-0.073-0.703-0.135c-0.179-0.062-0.303-0.137-0.375-0.23c-0.072-0.089-0.11-0.196-0.11-0.317V73.323
		c0-0.124,0.03-0.23,0.091-0.322c0.062-0.092,0.171-0.167,0.329-0.229c0.158-0.06,0.362-0.105,0.612-0.137
		c0.25-0.03,0.562-0.044,0.94-0.044c0.392,0,0.714,0.015,0.969,0.044c0.256,0.032,0.454,0.077,0.593,0.137
		c0.142,0.062,0.242,0.137,0.303,0.229s0.093,0.198,0.093,0.322v2.026c0.426-0.607,0.827-1.113,1.205-1.507
		c0.378-0.396,0.738-0.708,1.079-0.941c0.341-0.232,0.682-0.392,1.022-0.484c0.34-0.092,0.683-0.138,1.021-0.138
		c0.158,0,0.332,0.009,0.514,0.027c0.184,0.019,0.371,0.05,0.566,0.092c0.194,0.042,0.367,0.092,0.511,0.146
		c0.147,0.054,0.254,0.113,0.32,0.173c0.068,0.061,0.115,0.128,0.146,0.202c0.029,0.072,0.058,0.172,0.083,0.3
		c0.022,0.13,0.043,0.321,0.054,0.574C290.575,74.053,290.581,74.397,290.581,74.837z"/>
	<path fill="#E06127" d="M307.666,74.455c0,0.584-0.066,1.018-0.201,1.298c-0.135,0.277-0.298,0.418-0.495,0.418h-1.917
		c0.268,0.294,0.459,0.624,0.574,0.997c0.118,0.373,0.174,0.757,0.174,1.161c0,0.952-0.156,1.794-0.474,2.53
		c-0.316,0.738-0.771,1.357-1.362,1.864c-0.592,0.505-1.303,0.89-2.138,1.15c-0.835,0.263-1.763,0.395-2.786,0.395
		c-0.524,0-1.025-0.062-1.499-0.191c-0.475-0.129-0.839-0.278-1.097-0.449c-0.146,0.159-0.276,0.348-0.392,0.568
		c-0.117,0.22-0.175,0.462-0.175,0.729c0,0.352,0.155,0.643,0.466,0.867c0.311,0.226,0.746,0.353,1.307,0.375l3.965,0.147
		c0.927,0.036,1.752,0.166,2.478,0.392c0.725,0.226,1.334,0.543,1.826,0.95c0.494,0.408,0.873,0.899,1.133,1.472
		c0.263,0.571,0.394,1.225,0.394,1.957c0,0.802-0.176,1.559-0.53,2.273c-0.353,0.712-0.883,1.332-1.589,1.855
		c-0.708,0.524-1.593,0.937-2.658,1.24c-1.067,0.307-2.313,0.457-3.737,0.457c-1.39,0-2.574-0.11-3.556-0.328
		c-0.979-0.219-1.784-0.524-2.411-0.914c-0.629-0.39-1.084-0.854-1.371-1.396c-0.286-0.545-0.43-1.139-0.43-1.783
		c0-0.401,0.053-0.786,0.156-1.151c0.104-0.367,0.255-0.715,0.455-1.05c0.202-0.338,0.448-0.655,0.742-0.958
		c0.293-0.306,0.626-0.601,1.006-0.881c-0.524-0.277-0.931-0.659-1.217-1.141c-0.287-0.482-0.43-1.006-0.43-1.582
		c0-0.717,0.167-1.371,0.494-1.963c0.328-0.593,0.755-1.125,1.279-1.599c-0.428-0.426-0.769-0.939-1.024-1.535
		c-0.255-0.597-0.384-1.34-0.384-2.228c0-0.95,0.167-1.803,0.503-2.55c0.334-0.75,0.801-1.382,1.397-1.901
		c0.598-0.518,1.31-0.914,2.138-1.188s1.742-0.412,2.741-0.412c0.513,0,1.003,0.031,1.474,0.091
		c0.468,0.062,0.901,0.147,1.305,0.257h5.17c0.21,0,0.374,0.133,0.505,0.402C307.602,73.37,307.666,73.821,307.666,74.455z
		 M302.844,91.321c0-0.548-0.222-0.969-0.659-1.262c-0.44-0.291-1.044-0.45-1.811-0.476l-3.27-0.088
		c-0.316,0.228-0.571,0.451-0.76,0.664c-0.189,0.212-0.341,0.419-0.457,0.613c-0.115,0.194-0.19,0.385-0.227,0.565
		c-0.037,0.184-0.056,0.372-0.056,0.566c0,0.611,0.308,1.071,0.923,1.389c0.615,0.315,1.483,0.475,2.604,0.475
		c0.693,0,1.277-0.07,1.753-0.208c0.476-0.143,0.858-0.328,1.151-0.559c0.293-0.231,0.498-0.487,0.621-0.778
		C302.78,91.939,302.844,91.637,302.844,91.321z M301.763,78.311c0-0.876-0.244-1.561-0.73-2.047s-1.175-0.732-2.066-0.732
		c-0.449,0-0.846,0.076-1.185,0.229c-0.343,0.154-0.625,0.36-0.853,0.622c-0.224,0.264-0.391,0.568-0.502,0.914
		c-0.109,0.347-0.164,0.71-0.164,1.087c0,0.828,0.244,1.482,0.732,1.965c0.487,0.482,1.162,0.723,2.026,0.723
		c0.463,0,0.866-0.075,1.207-0.219c0.342-0.147,0.624-0.35,0.85-0.605c0.224-0.255,0.397-0.552,0.512-0.886
		C301.707,79.026,301.763,78.676,301.763,78.311z"/>
	<path fill="#E06127" d="M320.164,90.243l-1.973,5.774c-0.109,0.304-0.41,0.525-0.896,0.657c-0.486,0.133-1.2,0.201-2.138,0.201
		c-0.488,0-0.875-0.02-1.17-0.062c-0.292-0.046-0.511-0.116-0.656-0.212c-0.146-0.097-0.226-0.218-0.239-0.366
		c-0.013-0.146,0.025-0.323,0.11-0.529l2.174-5.463c-0.159-0.073-0.301-0.187-0.431-0.339c-0.129-0.151-0.224-0.313-0.281-0.485
		l-5.612-14.983c-0.158-0.425-0.235-0.75-0.235-0.978c0-0.226,0.072-0.402,0.219-0.53c0.146-0.129,0.393-0.216,0.74-0.266
		c0.348-0.047,0.808-0.071,1.381-0.071c0.522,0,0.937,0.008,1.24,0.028c0.307,0.017,0.543,0.063,0.714,0.137
		c0.17,0.073,0.298,0.186,0.384,0.337c0.085,0.152,0.171,0.37,0.256,0.647l3.837,10.91h0.055l3.509-11.127
		c0.072-0.318,0.166-0.527,0.283-0.63c0.116-0.104,0.309-0.18,0.575-0.23c0.267-0.047,0.737-0.071,1.406-0.071
		c0.526,0,0.961,0.024,1.309,0.071c0.347,0.05,0.604,0.142,0.767,0.276c0.163,0.134,0.247,0.312,0.247,0.538
		c0,0.227-0.049,0.492-0.146,0.796L320.164,90.243z"/>
</g>
<g>
	<rect x="15.684" y="57.481" fill="#247B46" width="40.974" height="41.262"/>
	<path fill="#2D493D" d="M47.417,67.037c-6.638,1.503-16.457,0.51-20.021,7.596c-3.023,6.009,1.272,10.968-0.599,15.975
		c-0.121,0.325,1.882,0.04,2.028,0.043c0.071,0,0.033-0.774-0.013-1.589c0.398-3.167,1.365-6.463,3.146-9.124
		c1.904-2.845,5.149-5.054,7.858-7.085c-2.257,2.54-5.184,5.102-6.841,8.079c-1.135,2.04-1.878,3.825-2.387,6.083
		c-0.079,0.349-0.256,1.052-0.301,1.363c2.843-0.672,5.673-0.267,8.528-1.896C46.562,82.061,47.634,74.974,47.417,67.037z"/>
	<path fill="#FFFFFF" d="M45.821,65.791c-6.637,1.501-16.319,0.776-19.884,7.859c-3.023,6.014,1.693,11.145-0.177,16.152
		c-0.121,0.329,1.605,0.249,1.752,0.253c0.071,0,0-1.022,0.136-1.74c0.399-3.166,1.071-6.696,2.852-9.358
		c1.903-2.845,5.149-5.053,7.859-7.084c-2.257,2.54-5.184,5.102-6.842,8.078c-1.135,2.041-1.718,4.413-2.226,6.673
		c-0.079,0.35-0.116,0.693-0.161,1.004c2.842-0.671,5.374-0.496,8.228-2.123C45.104,81.08,46.038,73.729,45.821,65.791z"/>
</g>
</svg>
