<svg xmlns="http://www.w3.org/2000/svg" viewBox="0 0 477.425 257.075" height="90" width="166.5"><defs><clipPath id="a" clipPathUnits="userSpaceOnUse"><path d="M0 0h3819v2056.64H0V0z"/></clipPath></defs><g clip-path="url(#a)" transform="matrix(.13 0 0 -.13 0 257.075)"><path d="M1341.95 1122.7c-.51-34.75-13.77-95.63 10.1-207.188 0 0 72.66-537.614 620.03-548.223 157.49 10.781 223.91 40.75 304.93 80.43 304.1 148.793 354.72 482.269 354.72 482.269h-286.09c-165.52-373.547-487.06-248.218-487.06-248.218l180.88 849.99c347.58-9.49 360.57-336.94 360.57-336.94h290.82s20.44 343.98-314.87 548.05c-68.67 41.8-181.91 71.2-292.76 73.79 0 0-619.12 38.84-741.27-693.96M3819.41 1724.41l-56.76-264.84h-487.06l-56.76-264.8h488.25l-55.54-264.821h-488.27l-55.57-264.808h488.27l-56.75-263.61h-983.59L2835.8 1724.41h983.61M725.051 399.191L566.637 1243.29 3.91 399.191h721.141M1414.28 399.191H876.387L687.23 1425.36l420.84 631.28 306.21-1657.449M3658.97 472.52c10.11 0 19.11.71 19.11 12.851 0 9.711-8.85 11.527-17.16 11.527h-16.23V472.52h14.28zm-14.28-44.2h-11.92v78.66h29.96c18.6 0 27.8-6.851 27.8-22.398 0-14.043-8.86-20.184-20.38-21.613l22.35-34.649h-13.34l-20.72 34.102h-13.75V428.32zm14.45-17.5c30.83 0 55.21 24.18 55.21 57.012 0 32.297-24.38 56.648-55.21 56.648-31.22 0-55.57-24.351-55.57-56.648 0-32.832 24.35-57.012 55.57-57.012zm-69.3 57.012c0 39.148 31.77 68.02 69.3 68.02 37.16 0 68.91-28.872 68.91-68.02 0-39.512-31.75-68.383-68.91-68.383-37.53 0-69.3 28.871-69.3 68.383" fill="#e51636"/><path d="M242.09 310.77v-40.129h-93.504V65.281H93.508v205.36H0v40.129h242.09M265.598 310.77h51.675V207.738h.688c15.301 24.141 38.758 34.692 70.035 34.692 30.609 0 78.203-16.66 78.203-72.09V65.281H414.52v90.438c0 42.16-19.383 52.019-44.2 52.019-26.863 0-53.047-18.699-53.047-60.179V65.281h-51.675V310.77M671.223 169.648c-3.071 30.954-26.184 42.172-54.407 42.172-25.5 0-50.996-12.922-54.062-42.172h108.469zm-108.469-30.589c0-35.7 29.582-49.637 58.816-49.637 15.305 0 38.086 5.437 43.528 21.758h55.078c-5.098-42.5-64.942-52.371-99.961-52.371-86.699 0-111.184 44.89-111.184 91.812 0 46.918 24.485 91.809 111.184 91.809 49.305 0 104.726-21.77 104.726-92.84v-10.531H562.754" fill="#231f20"/><path d="M892.891 310.77h51.679V207.738h.684c15.305 24.141 38.762 34.692 70.036 34.692 30.61 0 78.21-16.66 78.21-72.09V65.281h-51.68v90.438c0 42.16-19.39 52.019-44.203 52.019-26.863 0-53.047-18.699-53.047-60.179V65.281h-51.679V310.77M1298.52 169.648c-3.07 30.954-26.19 42.172-54.41 42.172-25.5 0-50.99-12.922-54.06-42.172h108.47zm-108.47-30.589c0-35.7 29.58-49.637 58.83-49.637 15.29 0 38.07 5.437 43.51 21.758h55.08c-5.1-42.5-64.94-52.371-99.96-52.371-86.7 0-111.18 44.89-111.18 91.812 0 46.918 24.48 91.809 111.18 91.809 49.31 0 104.73-21.77 104.73-92.84v-10.531h-162.19M1394.05 65.281h51.68V310.77h-51.68V65.281zM1598.73 91.46c32.65 0 54.4 26.86 54.4 59.161 0 32.289-21.75 59.16-54.4 59.16-32.64 0-54.39-26.871-54.39-59.16 0-32.301 21.75-59.16 54.39-59.16zm-106.07 104.38c0 13.941-.69 30.601-1.37 40.121h49.64c.68-7.82 1.36-15.641 1.36-23.461h.68c14.62 22.09 42.5 29.93 69.71 29.93 63.24 0 94.18-42.168 94.18-90.45 0-76.511-58.82-93.171-92.14-93.171-25.51 0-52.71 6.812-69.71 29.922h-.67V0h-51.68v195.84M1773.5 203.32h-44.21v32.641h44.21v14.621c0 45.559 24.13 62.219 73.09 62.219 14.28 0 31.96-.692 44.2-2.031v-31.981c-6.45.352-15.3 1.371-23.46 1.371-34.34 0-42.15-11.219-42.15-39.101v-5.098h53.03V203.32h-53.03V65.281h-51.68V203.32M2122.67 105.742c0-14.96 1.35-29.582 1.35-40.46h-49.63c-.68 9.519-1.37 18.699-1.37 28.218h-.68c-17.34-24.14-40.8-34.691-72.07-34.691-30.61 0-78.21 16.66-78.21 72.089v105.063h51.69v-90.449c0-42.153 19.37-52.012 44.19-52.012 26.86 0 53.05 18.691 53.05 60.18v82.281h51.68V105.742M2171.97 65.281h51.68V310.77h-51.68V65.281z" fill="#e51636"/><path d="M2501.75 91.46c32.66 0 54.42 26.86 54.42 59.161 0 32.289-21.76 59.16-54.42 59.16-32.63 0-54.39-26.871-54.39-59.16 0-32.301 21.76-59.16 54.39-59.16zm-106.07 104.38c0 13.941-.68 30.601-1.37 40.121h49.65c.68-7.82 1.37-15.641 1.37-23.461h.66c14.63 22.09 42.5 29.93 69.71 29.93 63.24 0 94.18-42.168 94.18-90.45 0-76.511-58.81-93.171-92.13-93.171-25.51 0-52.72 6.812-69.71 29.922h-.68V0h-51.68v195.84M2648.3 65.281h51.68V310.77h-51.68V65.281zM2853.32 143.141c-39.11 0-61.22-8.161-61.22-28.571 0-11.558 9.54-27.191 39.11-27.191 25.5 0 63.92 14.961 64.61 55.762h-42.5zm94.18-45.559c0-11.23.33-20.742 1.34-32.3h-47.59c-1.02 7.82-1.35 15.64-1.35 23.448-21.43-21.41-47.95-29.921-80.92-29.921-59.84 0-80.59 27.89-80.59 52.371 0 53.379 51 62.55 116.27 62.55h41.16c0 30.27-21.43 38.09-47.27 38.09-25.16 0-39.43-10.55-41.48-23.808h-53.72c5.1 43.867 52.37 54.418 96.57 54.418 47.93 0 97.58-13.621 97.58-73.45V97.582M3134.49 176.121c-1.7 22.777-18.01 35.699-41.14 35.699-27.2 0-49.98-19.371-49.98-61.871 0-32.988 12.91-60.527 49.3-60.527 24.14 0 40.47 11.219 43.18 35.359h53.72c-.67-44.883-45.9-65.972-96.57-65.972-64.94 0-103.36 32.992-103.36 91.812 0 59.828 41.16 91.809 101.66 91.809 67.68 0 94.53-29.59 96.92-66.309h-53.73M3381.34 169.648c-3.06 30.954-26.19 42.172-54.41 42.172-25.49 0-51-12.922-54.06-42.172h108.47zm-108.47-30.589c0-35.7 29.59-49.637 58.82-49.637 15.3 0 38.09 5.437 43.52 21.758h55.08c-5.1-42.5-64.94-52.371-99.96-52.371-86.7 0-111.17 44.89-111.17 91.812 0 46.918 24.47 91.809 111.17 91.809 49.31 0 104.72-21.77 104.72-92.84v-10.531h-162.18M3491.5 65.281h47.602v47.598H3491.5V65.281z" fill="#231f20"/></g></svg>