<svg xmlns="http://www.w3.org/2000/svg" width="32" height="32" viewBox="0 0 32 32" fill="none">
  <g clip-path="url(#clip0_69_329)">
    <path d="M15.9873 0.131433C16.1923 0.107028 16.4008 0.185048 16.5678 0.29934L18.7344 1.88876L30.8427 10.6311C31.6001 11.1455 31.9676 11.457 31.8691 12.4072L31.8664 12.4305C31.8209 12.841 31.2799 13.2256 30.917 13.306C30.6831 13.3578 30.3893 13.3259 30.1484 13.3264L28.6229 13.3284L28.6221 28.0786C29.3791 28.1368 30.0995 27.9248 30.8323 28.3042C31.4821 28.6406 31.8733 29.3011 31.8749 30.0244L31.8744 31.8682C31.7879 31.8946 31.6452 31.8761 31.5533 31.8761L10.086 31.8758L0.472474 31.876C0.359508 31.876 0.238012 31.8852 0.126181 31.8703L0.125259 30.4492C0.125195 30.1921 0.0965344 29.8958 0.1493 29.6444C0.303129 28.9116 0.952099 28.2159 1.70711 28.1111C2.24139 28.0371 2.81782 28.0576 3.35809 28.0798L3.36199 13.3278L1.88656 13.3287C1.5115 13.3288 1.09794 13.3845 0.758336 13.1823L0.742261 13.1726C0.333553 12.9325 0.127921 12.6125 0.124963 12.1554C0.118885 11.216 0.333518 11.1493 1.1407 10.5956L2.8042 9.39189C2.97728 9.26558 3.15001 9.12464 3.34169 9.02764L3.35662 2.62727C3.06676 2.62697 2.58592 2.69507 2.51421 2.34617L2.5092 2.32108C2.46499 2.11447 2.43878 1.55639 2.49429 1.34716L2.49953 1.32889C2.61907 0.901698 3.02339 1.03008 3.37049 1.02985L9.24039 1.02112C9.70314 1.03504 9.6112 1.60875 9.6107 1.91462C9.60945 2.66848 9.54976 2.60997 8.74364 2.61705L8.74801 5.23311C8.80357 5.15957 9.09939 4.96507 9.19082 4.89854L14.7813 0.873679C15.1081 0.62388 15.5536 0.16153 15.9873 0.131433ZM5.49707 13.3278L4.43999 13.3285L4.4554 28.0702L26.4766 28.071L27.2362 28.0718C27.3156 28.0725 27.4665 28.0581 27.5376 28.0888L27.5301 13.3285L5.49707 13.3278Z" fill="#E06127"/>
    <path d="M21.0615 14.5209C21.3357 14.4901 21.5481 14.6744 21.606 14.945C21.6388 15.0984 21.4935 15.2574 21.4232 15.3861C20.8845 16.3709 20.7936 17.639 20.74 18.74L20.7255 19.6559C20.6682 20.7543 20.4656 21.9834 19.8921 22.9285L19.598 23.3981C18.4145 25.1461 16.1454 26.1847 14.0415 26.028L13.5446 25.9759L13.1472 26.9592C13.0997 27.087 13.0778 27.2443 13.0102 27.36C12.6824 27.3589 12.3302 27.331 12.0055 27.369L11.9833 27.3717C12.9307 25.2638 14.8594 22.9409 16.4422 21.3031C16.9245 20.8203 17.33 20.3023 16.4212 20.0331C16.1613 20.1242 15.9833 20.3377 15.7937 20.5281L14.2802 22.1394L12.7309 24.0761L11.9769 25.1934C11.8605 25.0312 11.7754 24.8496 11.6864 24.6716C10.8241 22.9466 10.66 20.9756 11.6097 19.2341C11.7492 18.9782 11.9138 18.7508 12.0772 18.5111L12.1255 18.4447C13.9042 16.2291 17.0667 15.1423 19.7958 14.6786L21.0615 14.5209Z" fill="#247B46"/>
  </g>
  <defs>
    <clipPath id="clip0_69_329">
      <rect width="32" height="32" fill="white"/>
    </clipPath>
  </defs>
</svg>