<svg xmlns="http://www.w3.org/2000/svg" width="32" height="32" viewBox="0 0 32 32" fill="none">
  <path d="M11.5686 27.2871L20.4732 27.2994C20.4926 27.5309 20.4821 27.7684 20.4826 28.0007C20.4842 28.7314 20.5121 28.7863 21.2098 28.7715L22.2462 28.7619C22.4326 28.7603 22.6426 28.7406 22.8257 28.768C23.0764 28.8054 23.3793 29.1734 23.3171 29.4346L23.2861 29.5982C23.1343 30.166 22.5027 30.0459 22.0603 30.0462L20.4704 30.046L10.5262 30.0465C10.2129 30.0465 9.31218 30.125 9.06625 29.982L9.04681 29.9706C8.51775 29.6693 8.607 28.966 9.1785 28.7807C9.34331 28.7274 9.57631 28.7615 9.74993 28.7626L11.1476 28.7724C11.6655 28.7799 11.55 28.4426 11.5542 27.9699C11.5562 27.7427 11.5513 27.5137 11.5686 27.2871Z" fill="#E06127"/>
  <path d="M15.8165 23.3412L31.8758 23.3398L31.876 24.4397C31.8758 24.6237 31.9089 24.896 31.8492 25.0688C31.4728 26.157 30.8073 26.3793 29.7957 26.38L16.2266 26.3788L1.94009 26.3825C1.44874 26.3839 1.02124 26.2493 0.660854 25.89C0.111902 25.3427 0.125302 24.9937 0.124756 24.2998L0.125465 23.3441L15.8165 23.3412ZM15.9154 23.7227C15.7223 23.7562 15.5293 23.8408 15.4145 24.0073L15.3863 24.0515C15.3293 24.1448 15.302 24.2586 15.2891 24.366L15.2867 24.3825C15.2432 24.7181 15.4667 25.0614 15.7813 25.1726L15.8048 25.1814C15.9028 25.2169 16.0107 25.2088 16.1131 25.1999C17.0623 24.9673 16.864 23.607 15.9154 23.7227Z" fill="#E06127"/>
  <path d="M6.23059 1.79374L29.877 1.79382C30.0804 1.79376 30.3255 1.76836 30.5215 1.81679L30.5834 1.83099C31.1827 1.93536 31.8202 2.50419 31.8702 3.14042C31.8877 3.36433 31.8752 3.59736 31.8753 3.82207L31.8751 22.3617L25.8008 22.3572L0.132794 22.3521C0.110557 22.2733 0.124327 22.1571 0.124386 22.0736L0.125085 3.61258C0.125121 3.44901 0.108241 3.26227 0.140746 3.10232L0.145123 3.08246C0.195824 2.84629 0.306733 2.65328 0.442746 2.45764L0.461706 2.42992C0.890295 1.83654 1.54423 1.79364 2.20401 1.79356L6.23059 1.79374ZM29.3497 3.70083C28.4726 3.75316 27.5798 3.72184 26.7008 3.72207L2.76579 3.71889C2.64302 3.71725 2.45202 3.69045 2.33656 3.71804C1.9821 3.80273 2.01355 4.28523 2.01313 4.53386L2.01044 19.8348C2.00995 20.332 2.0383 20.8486 1.99877 21.343L2.58598 21.3434L29.1789 21.3433C29.4429 21.3433 29.7362 21.3693 29.9974 21.3393L30.0041 4.88942C30.0039 4.45881 30.1401 3.69869 29.5 3.69026L29.3497 3.70083Z" fill="#E06127"/>
  <path d="M4.4902 18.1648L6.16444 18.1653C6.19103 18.3801 6.17003 18.6194 6.17011 18.8368L6.17797 20.4481L4.55464 20.4488L3.42003 20.4475C3.23946 20.4473 3.05127 20.4585 2.87305 20.4282L2.87441 18.1734C3.05157 18.1532 3.24205 18.1663 3.42065 18.166L4.4902 18.1648Z" fill="#247B46"/>
  <path d="M10.5527 16.3828C10.5878 16.3938 10.5832 16.4172 10.5836 16.4323L10.5966 20.4653C10.3037 20.4324 9.99517 20.4499 9.7001 20.4493L7.64835 20.4382L7.57473 20.4141C7.55667 20.3463 7.56329 20.2738 7.5631 20.2041L7.56104 18.5588C7.5601 18.3244 7.57179 18.0808 7.54535 17.8482C7.5301 17.7138 8.45279 17.3338 8.58404 17.2732L10.5527 16.3828Z" fill="#247B46"/>
  <path d="M19.3214 14.2419C19.4526 14.2118 19.3863 14.6091 19.3855 14.719L19.3978 20.4605L16.4767 20.4483L16.4336 20.4408C16.3982 20.2688 16.4131 20.067 16.4112 19.891L16.4154 15.3055C16.4806 15.306 16.5492 15.329 16.6161 15.3344C18.0402 15.4478 18.2211 14.7028 19.3214 14.2419Z" fill="#247B46"/>
  <path d="M14.9477 14.1797L14.995 20.4465L12.1368 20.4478C11.93 20.4268 12.0182 20.0439 12.0181 19.8369L12.0231 15.5764C12.0863 15.5266 12.1577 15.5195 12.2293 15.4884L14.9477 14.1797Z" fill="#247B46"/>
  <path d="M23.7666 10.6801C23.9153 10.6344 23.8406 11.2762 23.8407 11.3983L23.8504 20.4492L20.9649 20.448C20.9138 20.4397 20.8878 20.4457 20.8462 20.4144L20.8428 13.0431C20.8634 13.0124 20.8788 12.9901 20.9073 12.966L23.7666 10.6801Z" fill="#247B46"/>
  <path d="M25.7109 11.0542L27.3733 11.0473C27.6336 11.0472 28.2933 10.9244 28.3362 11.3213C28.3689 11.6249 28.3433 11.954 28.3433 12.261L28.3436 20.4448L27.9193 20.4489L25.3309 20.451C25.3109 20.2958 25.3214 20.1302 25.321 19.9732L25.3203 11.7641C25.3218 11.5318 25.3147 11.2954 25.3471 11.0649L25.7109 11.0542Z" fill="#247B46"/>
  <path d="M27.0739 5.396L27.083 5.3927C27.3449 5.35329 27.5387 5.46009 27.6043 5.72627L27.6095 5.74959C27.6845 6.03966 27.647 6.39021 27.6614 6.69103L27.7638 8.76484C27.8062 9.9369 26.8452 9.67778 26.7402 9.21428C26.6937 9.00946 26.7157 8.74915 26.7066 8.53684L26.6562 7.38321L25.3715 8.5359L21.7302 11.4878L18.8172 13.7543C18.5211 13.9937 18.2317 14.2322 17.9137 14.443C17.0552 15.0123 16.6854 14.5082 15.982 13.981C15.8594 13.8892 15.1912 13.3786 15.0999 13.3685C15.0544 13.3635 13.9391 13.9631 13.7813 14.0442L7.45517 17.1441C7.14504 17.2933 6.86629 17.4907 6.51923 17.5403L6.4141 17.5445C6.16612 17.5358 5.88895 17.2942 5.92536 17.0266L5.93216 16.9996C6.02457 16.5901 6.51392 16.476 6.85148 16.3265L14.4042 12.6203C14.7042 12.4497 14.9749 12.2741 15.335 12.3825L15.3594 12.3901C15.9379 12.5672 17.0776 13.6906 17.2525 13.7072C17.5642 13.5063 17.847 13.2515 18.1379 13.0218L24.6102 7.82846L25.4308 7.10921C25.5878 6.97078 25.7607 6.83915 25.8959 6.67878C25.5434 6.7444 24.1667 6.88303 23.9126 6.71259C23.6967 6.56771 23.6544 6.24454 23.8042 6.03865C23.9545 5.83194 24.2044 5.81365 24.4375 5.79503L27.0739 5.396Z" fill="#247B46"/>
</svg>