<svg xmlns="http://www.w3.org/2000/svg" width="32" height="32" viewBox="0 0 32 32" fill="none">
  <g clip-path="url(#clip0_69_349)">
    <path d="M1.85195 7.06775L7.70101 7.06187C8.02364 7.06119 8.46058 6.9695 8.67658 7.28219L8.69289 7.30681C8.96751 7.69344 8.74014 8.21037 8.27795 8.29494C8.04901 8.33594 7.81876 8.32681 7.58764 8.32694L2.3069 8.32744C2.14337 8.32862 1.93168 8.36175 1.77345 8.3245C1.43083 8.24394 1.25836 7.84069 1.33851 7.51862L1.36461 7.42319C1.40597 7.29887 1.49822 7.18487 1.61785 7.12875L1.63769 7.11975C1.71321 7.08487 1.77013 7.07394 1.85195 7.06775Z" fill="#E06127"/>
    <path d="M28.0051 5.3027C28.4157 5.2478 28.8648 5.7913 29.1329 6.0339L30.5592 7.2071C30.805 7.39404 31.1145 7.59667 31.3051 7.84017L31.3523 7.90342C31.5452 8.21135 31.4477 8.60529 31.1446 8.80754L31.1294 8.81742C30.4881 9.26098 29.9684 8.37467 29.3508 8.11023C29.7058 8.93567 29.902 9.84748 30.1385 10.711L30.3673 11.5393C30.4705 11.9339 30.557 12.6042 29.9652 12.6424C29.4227 12.6775 29.402 12.4314 29.2813 11.9537L29.0568 11.0803C28.9908 10.8253 28.9333 10.5506 28.8083 10.3173L28.7308 10.8755C28.2379 13.9208 26.7207 16.6189 24.2311 18.4463C23.7833 18.7594 23.3233 18.9923 22.8282 19.2196L22.09 19.5396C21.8065 19.6472 21.5168 19.7091 21.2388 19.8339L22.3829 18.9014C24.089 17.317 25.2409 15.3754 25.9853 13.188L26.4479 11.5928C26.7155 10.5808 26.9706 9.36548 27.0105 8.30867L25.8282 9.1576C24.9852 9.73648 24.3236 8.71098 24.7085 8.19585C24.8309 8.0321 25.0241 7.88592 25.1748 7.74767L27.2732 5.80809C27.5139 5.58532 27.6575 5.34617 28.0051 5.3027Z" fill="#E06127"/>
    <path d="M15.917 0.548284C16.2086 0.529191 16.4043 0.706826 16.5796 0.919264L18.1968 2.93576L20.3258 5.91421L21.3106 7.42238L22.0078 8.69107C22.5568 9.73938 23.1083 10.9189 23.1685 12.1233C23.3574 15.9043 19.8125 18.9709 16.168 19.0416C15.4367 19.057 14.7358 18.9581 14.0313 18.7664C11.2921 18.0207 8.87328 15.2818 8.90534 12.3816C8.92522 10.5826 9.85666 8.92082 10.7347 7.40676L11.9317 5.54776L15.2523 1.12748C15.4521 0.876226 15.5911 0.634726 15.917 0.548284ZM15.875 7.09451L15.875 8.22088C15.753 8.27257 15.6178 8.28082 15.4922 8.32557C14.8935 8.53863 14.391 8.88738 14.1422 9.49269L14.04 9.82794C13.7803 10.793 14.5662 11.4986 15.3428 11.8852L15.8827 12.1299C16.0762 12.2112 16.2819 12.2849 16.4558 12.4046C17.0011 12.7799 16.9186 13.4666 16.2868 13.6681L16.2653 13.6751C16.0654 13.7376 15.6943 13.7237 15.4935 13.6761L15.0077 13.5708C14.7298 13.496 14.443 13.3851 14.1799 13.2679L13.947 14.2154C13.9025 14.4173 13.9756 14.4465 14.1485 14.5321C14.4772 14.6948 14.8882 14.8353 15.2554 14.8909L15.6705 14.9318L15.6707 16.1119L16.155 16.1099L16.6683 16.1087L16.6856 15.8864C16.7192 15.6758 16.6523 14.9708 16.7372 14.8338L16.7555 14.8331C17.1524 14.8121 17.734 14.4784 17.9809 14.1958L18.0391 14.1195C18.5181 13.4292 18.5472 12.4997 18.0584 11.8056C17.5659 11.1062 16.6643 10.9563 15.9733 10.5394C15.3041 10.1357 15.6268 9.57163 16.3256 9.47876C16.9003 9.40232 17.4528 9.55082 17.9868 9.74545C18.0922 9.5507 18.3604 8.9072 18.2735 8.68832C17.9873 8.4902 17.2473 8.21057 16.8712 8.19963C16.83 8.12707 16.8484 7.95407 16.8472 7.86732L16.8285 7.07763L16.2147 7.0687C16.104 7.06863 15.9835 7.07782 15.875 7.09451Z" fill="#247B46"/>
    <path d="M4.6174 13.9562L5.91083 13.9554C6.36053 13.9553 6.68109 13.9277 6.94046 14.3947L6.95153 14.415C7.08015 14.6478 7.00253 15.5524 7.00203 15.8555L6.98865 30.2463L8.20496 30.2464C8.4229 30.2471 8.65978 30.2317 8.87565 30.2625L8.88865 20.1233C8.88784 19.9325 8.8414 19.6876 8.88578 19.5046C9.01396 18.9759 9.39078 18.911 9.83684 18.9103L11.4013 18.9099C11.5501 18.9102 11.7523 18.8904 11.8948 18.9292L11.9845 18.9531C12.2459 19.0175 12.5119 19.2405 12.571 19.5081L12.5759 19.5322C12.5992 19.6437 12.5932 19.7668 12.5932 19.8805L12.5972 30.2395L13.9483 30.2538L13.9507 23.1478C13.9497 22.9692 13.9167 22.7557 13.9493 22.5824L13.9532 22.5635C14.0293 22.1375 14.4152 21.9167 14.8282 21.9172L16.7618 21.9223C17.8482 21.9237 17.7185 22.7336 17.7184 23.514L17.7186 30.2362C18.1577 30.2889 18.6189 30.2028 19.0595 30.257L19.0772 21.7358C19.0753 21.6167 18.9993 21.4063 19.1396 21.3452C19.511 21.1835 19.9159 21.066 20.3007 20.9375L21.0176 20.6758C21.4096 20.5323 21.8047 20.3868 22.1835 20.2109L22.7435 19.9391C22.7391 20.1611 22.7667 20.3871 22.7678 20.6103L22.7715 29.9748C22.7718 30.0302 22.7568 30.1927 22.7851 30.2262L24.0965 30.2474C24.1188 30.1825 24.1079 30.0823 24.1085 30.0122L24.1079 25.7865C24.1078 25.4089 24.106 25.0297 24.4905 24.8197L24.5112 24.8087C24.7501 24.6768 24.926 24.6887 25.1925 24.6882L26.7817 24.6843C26.9244 24.683 27.0753 24.671 27.2172 24.6857C27.4685 24.7119 27.7827 25.029 27.8332 25.267C27.8598 25.3927 27.8438 25.5437 27.844 25.672L27.8488 30.2481L29.9263 30.2475C30.042 30.248 30.1746 30.2412 30.2858 30.2759L30.3048 30.2823C30.8871 30.4743 30.8602 31.1296 30.3448 31.3977L30.2882 31.426C30.2125 31.4535 30.1099 31.4497 30.03 31.4505L1.14071 31.4538C0.797952 31.4511 0.448236 31.2135 0.472643 30.8414L0.474729 30.8135C0.487531 30.6145 0.620843 30.4045 0.798921 30.3159L0.819946 30.3057C1.08951 30.1651 1.58813 30.2468 1.88959 30.247L3.28959 30.2571L3.28993 15.1187C3.28791 13.9898 3.54976 13.9587 4.6174 13.9562Z" fill="#E06127"/>
  </g>
  <defs>
    <clipPath id="clip0_69_349">
      <rect width="32" height="32" fill="white"/>
    </clipPath>
  </defs>
</svg>